<svg xmlns="http://www.w3.org/2000/svg" xmlns:xlink="http://www.w3.org/1999/xlink" width="150" zoomAndPan="magnify" viewBox="0 0 112.5 74.999997" height="100" preserveAspectRatio="xMidYMid meet" version="1.0"><defs><g/><clipPath id="61c10e8fc0"><path d="M 3.203125 27 L 23 27 L 23 41 L 3.203125 41 Z M 3.203125 27 " clip-rule="nonzero"/></clipPath><clipPath id="aa923a5f2b"><path d="M 13 28.058594 L 17 28.058594 L 17 33 L 13 33 Z M 13 28.058594 " clip-rule="nonzero"/></clipPath></defs><g clip-path="url(#61c10e8fc0)"><path stroke-linecap="round" transform="matrix(0, 0.877277, -0.877277, 0, 24.258991, 23.86326)" fill="none" stroke-linejoin="round" d="M 5.000405 15.999891 L 5.000405 9.000248 L 18.99969 9.000248 L 18.99969 2.000605 L 5.000405 2.000605 L 18.99969 15.999891 L 12.000047 15.999891 M 5.000405 15.999891 L 12.000047 22.999533 L 12.000047 15.999891 M 5.000405 15.999891 L 12.000047 15.999891 " stroke="#033043" stroke-width="1" stroke-opacity="1" stroke-miterlimit="4"/></g><g clip-path="url(#aa923a5f2b)"><path fill="#033043" d="M 14.132812 31.019531 L 13.496094 31.019531 L 14.773438 29.746094 L 13.496094 28.46875 L 14.132812 28.46875 L 15.410156 29.746094 Z M 14.179688 32.976562 L 13.539062 32.976562 L 16.089844 30.425781 L 16.410156 30.746094 Z M 14.179688 32.976562 " fill-opacity="1" fill-rule="nonzero"/></g><path stroke-linecap="round" transform="matrix(0, -0.877277, 0.877277, 0, 2.300341, 51.136747)" fill="none" stroke-linejoin="round" d="M 5.000413 15.99905 L 5.000413 8.999407 L 18.999698 8.999407 L 18.999698 1.999764 L 5.000413 1.999764 L 18.999698 15.99905 L 12.000056 15.99905 M 5.000413 15.99905 L 12.000056 22.998692 L 12.000056 15.99905 M 5.000413 15.99905 L 12.000056 15.99905 " stroke="#033043" stroke-width="1" stroke-opacity="1" stroke-miterlimit="4"/><g fill="#033043" fill-opacity="1"><g transform="translate(26.384675, 39.713629)"><g><path d="M 1.15625 0 L 6.359375 -9.25 L 11.546875 0 L 10.609375 0 L 6.359375 -7.578125 L 2.109375 0 Z M 1.15625 0 "/></g></g></g><g fill="#033043" fill-opacity="1"><g transform="translate(40.92417, 39.713629)"><g><path d="M 5.78125 -9.25 C 6.414062 -9.25 7.015625 -9.128906 7.578125 -8.890625 C 8.140625 -8.648438 8.628906 -8.316406 9.046875 -7.890625 C 9.472656 -7.472656 9.804688 -6.984375 10.046875 -6.421875 C 10.285156 -5.859375 10.40625 -5.257812 10.40625 -4.625 C 10.40625 -3.988281 10.285156 -3.390625 10.046875 -2.828125 C 9.804688 -2.265625 9.472656 -1.769531 9.046875 -1.34375 C 8.628906 -0.925781 8.140625 -0.597656 7.578125 -0.359375 C 7.015625 -0.117188 6.414062 0 5.78125 0 L 1.15625 0 L 1.15625 -0.78125 L 5.78125 -0.78125 C 6.3125 -0.78125 6.804688 -0.878906 7.265625 -1.078125 C 7.734375 -1.273438 8.144531 -1.550781 8.5 -1.90625 C 8.851562 -2.257812 9.128906 -2.664062 9.328125 -3.125 C 9.523438 -3.59375 9.625 -4.09375 9.625 -4.625 C 9.625 -5.15625 9.523438 -5.648438 9.328125 -6.109375 C 9.128906 -6.578125 8.851562 -6.988281 8.5 -7.34375 C 8.144531 -7.695312 7.734375 -7.972656 7.265625 -8.171875 C 6.804688 -8.367188 6.3125 -8.46875 5.78125 -8.46875 L 1.15625 -8.46875 L 1.15625 -9.25 Z M 5.78125 -9.25 "/></g></g></g><g fill="#033043" fill-opacity="1"><g transform="translate(54.318581, 39.713629)"><g><path d="M 6.359375 -1.671875 L 10.609375 -9.25 L 11.546875 -9.25 L 6.359375 0 L 1.15625 -9.25 L 2.109375 -9.25 Z M 6.359375 -1.671875 "/></g></g></g><g fill="#033043" fill-opacity="1"><g transform="translate(68.858076, 39.713629)"><g><path d="M 1.15625 0 L 6.359375 -9.25 L 11.546875 0 L 10.609375 0 L 6.359375 -7.578125 L 2.109375 0 Z M 1.15625 0 "/></g></g></g><g fill="#033043" fill-opacity="1"><g transform="translate(83.39757, 39.713629)"><g><path d="M 10.40625 -6.734375 C 10.40625 -6.296875 10.296875 -5.890625 10.078125 -5.515625 C 9.867188 -5.140625 9.585938 -4.84375 9.234375 -4.625 C 9.585938 -4.40625 9.867188 -4.109375 10.078125 -3.734375 C 10.296875 -3.367188 10.40625 -2.960938 10.40625 -2.515625 L 10.40625 0 L 9.625 0 L 9.625 -2.515625 C 9.625 -2.828125 9.546875 -3.113281 9.390625 -3.375 C 9.234375 -3.632812 9.023438 -3.84375 8.765625 -4 C 8.515625 -4.15625 8.222656 -4.234375 7.890625 -4.234375 L 1.9375 -4.234375 L 1.9375 0 L 1.15625 0 L 1.15625 -5.015625 L 7.890625 -5.015625 C 8.222656 -5.015625 8.515625 -5.09375 8.765625 -5.25 C 9.023438 -5.40625 9.234375 -5.613281 9.390625 -5.875 C 9.546875 -6.132812 9.625 -6.421875 9.625 -6.734375 C 9.625 -7.054688 9.546875 -7.347656 9.390625 -7.609375 C 9.234375 -7.867188 9.023438 -8.078125 8.765625 -8.234375 C 8.503906 -8.390625 8.210938 -8.46875 7.890625 -8.46875 L 1.15625 -8.46875 L 1.15625 -9.25 L 7.890625 -9.25 C 8.359375 -9.25 8.78125 -9.132812 9.15625 -8.90625 C 9.53125 -8.675781 9.832031 -8.375 10.0625 -8 C 10.289062 -7.625 10.40625 -7.203125 10.40625 -6.734375 Z M 10.40625 -6.734375 "/></g></g></g><g fill="#033043" fill-opacity="1"><g transform="translate(96.791986, 39.713629)"><g><path d="M 5.78125 -9.25 C 6.414062 -9.25 7.015625 -9.128906 7.578125 -8.890625 C 8.140625 -8.648438 8.628906 -8.316406 9.046875 -7.890625 C 9.472656 -7.472656 9.804688 -6.984375 10.046875 -6.421875 C 10.285156 -5.859375 10.40625 -5.257812 10.40625 -4.625 C 10.40625 -3.988281 10.285156 -3.390625 10.046875 -2.828125 C 9.804688 -2.265625 9.472656 -1.769531 9.046875 -1.34375 C 8.628906 -0.925781 8.140625 -0.597656 7.578125 -0.359375 C 7.015625 -0.117188 6.414062 0 5.78125 0 L 1.15625 0 L 1.15625 -0.78125 L 5.78125 -0.78125 C 6.3125 -0.78125 6.804688 -0.878906 7.265625 -1.078125 C 7.734375 -1.273438 8.144531 -1.550781 8.5 -1.90625 C 8.851562 -2.257812 9.128906 -2.664062 9.328125 -3.125 C 9.523438 -3.59375 9.625 -4.09375 9.625 -4.625 C 9.625 -5.15625 9.523438 -5.648438 9.328125 -6.109375 C 9.128906 -6.578125 8.851562 -6.988281 8.5 -7.34375 C 8.144531 -7.695312 7.734375 -7.972656 7.265625 -8.171875 C 6.804688 -8.367188 6.3125 -8.46875 5.78125 -8.46875 L 1.15625 -8.46875 L 1.15625 -9.25 Z M 5.78125 -9.25 "/></g></g></g></svg>