<svg xmlns="http://www.w3.org/2000/svg" xmlns:xlink="http://www.w3.org/1999/xlink" width="500" zoomAndPan="magnify" viewBox="0 0 375 374.999991" height="500" preserveAspectRatio="xMidYMid meet" version="1.0"><defs><g/><clipPath id="8a92cc8946"><path d="M 13 82 L 78.558594 82 L 78.558594 127 L 13 127 Z M 13 82 " clip-rule="nonzero"/></clipPath></defs><path fill="#ffffff" d="M 93.898438 128.542969 L 111.472656 97.28125 L 128.996094 128.542969 L 125.828125 128.542969 L 111.472656 102.929688 L 97.117188 128.542969 Z M 93.898438 128.542969 " fill-opacity="1" fill-rule="nonzero"/><path fill="#ffffff" d="M 158.632812 97.28125 C 160.773438 97.28125 162.804688 97.6875 164.703125 98.492188 C 166.605469 99.3125 168.253906 100.433594 169.664062 101.875 C 171.101562 103.285156 172.226562 104.9375 173.042969 106.839844 C 173.847656 108.738281 174.257812 110.773438 174.257812 112.910156 C 174.257812 115.0625 173.847656 117.085938 173.042969 118.984375 C 172.226562 120.886719 171.101562 122.5625 169.664062 124.003906 C 168.253906 125.414062 166.605469 126.523438 164.703125 127.328125 C 162.804688 128.148438 160.773438 128.542969 158.632812 128.542969 L 143.011719 128.542969 L 143.011719 125.902344 L 158.632812 125.902344 C 160.429688 125.902344 162.089844 125.574219 163.648438 124.898438 C 165.230469 124.238281 166.617188 123.304688 167.816406 122.101562 C 169.003906 120.914062 169.941406 119.539062 170.613281 117.980469 C 171.273438 116.398438 171.617188 114.707031 171.617188 112.910156 C 171.617188 111.117188 171.273438 109.453125 170.613281 107.894531 C 169.941406 106.308594 169.003906 104.925781 167.816406 103.722656 C 166.617188 102.535156 165.230469 101.597656 163.648438 100.921875 C 162.089844 100.261719 160.429688 99.921875 158.632812 99.921875 L 143.011719 99.921875 L 143.011719 97.28125 Z M 158.632812 97.28125 " fill-opacity="1" fill-rule="nonzero"/><path fill="#ffffff" d="M 205.832031 122.894531 L 220.1875 97.28125 L 223.355469 97.28125 L 205.832031 128.542969 L 188.257812 97.28125 L 191.476562 97.28125 Z M 205.832031 122.894531 " fill-opacity="1" fill-rule="nonzero"/><path fill="#ffffff" d="M 237.371094 128.542969 L 254.945312 97.28125 L 272.46875 128.542969 L 269.300781 128.542969 L 254.945312 102.929688 L 240.589844 128.542969 Z M 237.371094 128.542969 " fill-opacity="1" fill-rule="nonzero"/><path fill="#ffffff" d="M 317.730469 105.78125 C 317.730469 107.261719 317.359375 108.632812 316.621094 109.902344 C 315.910156 111.167969 314.957031 112.171875 313.769531 112.910156 C 314.957031 113.652344 315.910156 114.65625 316.621094 115.921875 C 317.359375 117.164062 317.730469 118.535156 317.730469 120.042969 L 317.730469 128.542969 L 315.089844 128.542969 L 315.089844 120.042969 C 315.089844 118.984375 314.828125 118.023438 314.296875 117.136719 C 313.769531 116.265625 313.058594 115.550781 312.1875 115.023438 C 311.34375 114.496094 310.351562 114.230469 309.230469 114.230469 L 289.121094 114.230469 L 289.121094 128.542969 L 286.484375 128.542969 L 286.484375 111.589844 L 309.230469 111.589844 C 310.351562 111.589844 311.34375 111.328125 312.1875 110.800781 C 313.058594 110.269531 313.769531 109.570312 314.296875 108.6875 C 314.828125 107.816406 315.089844 106.839844 315.089844 105.78125 C 315.089844 104.699219 314.828125 103.710938 314.296875 102.824219 C 313.769531 101.953125 313.058594 101.242188 312.1875 100.710938 C 311.304688 100.183594 310.3125 99.921875 309.230469 99.921875 L 286.484375 99.921875 L 286.484375 97.28125 L 309.230469 97.28125 C 310.816406 97.28125 312.238281 97.675781 313.507812 98.441406 C 314.773438 99.21875 315.789062 100.238281 316.566406 101.503906 C 317.332031 102.773438 317.730469 104.199219 317.730469 105.78125 Z M 317.730469 105.78125 " fill-opacity="1" fill-rule="nonzero"/><path fill="#ffffff" d="M 347.351562 97.28125 C 349.488281 97.28125 351.519531 97.6875 353.421875 98.492188 C 355.320312 99.3125 356.972656 100.433594 358.382812 101.875 C 359.820312 103.285156 360.941406 104.9375 361.761719 106.839844 C 362.566406 108.738281 362.972656 110.773438 362.972656 112.910156 C 362.972656 115.0625 362.566406 117.085938 361.761719 118.984375 C 360.941406 120.886719 359.820312 122.5625 358.382812 124.003906 C 356.972656 125.414062 355.320312 126.523438 353.421875 127.328125 C 351.519531 128.148438 349.488281 128.542969 347.351562 128.542969 L 331.730469 128.542969 L 331.730469 125.902344 L 347.351562 125.902344 C 349.144531 125.902344 350.808594 125.574219 352.367188 124.898438 C 353.949219 124.238281 355.335938 123.304688 356.535156 122.101562 C 357.722656 120.914062 358.660156 119.539062 359.332031 117.980469 C 359.992188 116.398438 360.335938 114.707031 360.335938 112.910156 C 360.335938 111.117188 359.992188 109.453125 359.332031 107.894531 C 358.660156 106.308594 357.722656 104.925781 356.535156 103.722656 C 355.335938 102.535156 353.949219 101.597656 352.367188 100.921875 C 350.808594 100.261719 349.144531 99.921875 347.351562 99.921875 L 331.730469 99.921875 L 331.730469 97.28125 Z M 347.351562 97.28125 " fill-opacity="1" fill-rule="nonzero"/><path stroke-linecap="round" transform="matrix(0, -2.967413, 2.965596, 0, 8.636811, 161.294785)" fill="none" stroke-linejoin="round" d="M 5.001548 15.999861 L 5.001548 9.001637 L 18.99864 9.001637 L 18.99864 1.998144 L 5.001548 1.998144 L 18.99864 15.999861 L 11.999436 15.999861 M 5.001548 15.999861 L 11.999436 22.999402 L 11.999436 15.999861 M 5.001548 15.999861 L 11.999436 15.999861 " stroke="#ffffff" stroke-width="1" stroke-opacity="1" stroke-miterlimit="4"/><g clip-path="url(#8a92cc8946)"><path stroke-linecap="round" transform="matrix(0, 2.967413, -2.965596, 0, 82.953133, 69.110422)" fill="none" stroke-linejoin="round" d="M 5.000583 15.999895 L 5.000583 9.001671 L 18.998992 9.001671 L 18.998992 1.998178 L 5.000583 1.998178 L 18.998992 15.999895 L 11.999788 15.999895 M 5.000583 15.999895 L 11.999788 22.999437 L 11.999788 15.999895 M 5.000583 15.999895 L 11.999788 15.999895 " stroke="#ffffff" stroke-width="1" stroke-opacity="1" stroke-miterlimit="4"/></g><path fill="#ffffff" d="M 46.957031 94.644531 L 44.292969 94.644531 L 49.621094 89.3125 L 44.292969 83.976562 L 46.957031 83.976562 L 52.289062 89.3125 Z M 47.140625 102.832031 L 44.476562 102.832031 L 55.136719 92.164062 L 56.46875 93.496094 Z M 47.140625 102.832031 " fill-opacity="1" fill-rule="nonzero"/><g fill="#ffffff" fill-opacity="1"><g transform="translate(7.515891, 190.922218)"><g><path d="M 18.859375 -2.171875 L 20.625 -2.171875 L 20.625 0 L 18.59375 0 C 17.632812 0 16.769531 -0.210938 16 -0.640625 C 15.75 1.191406 14.921875 2.632812 13.515625 3.6875 C 12.273438 4.613281 10.734375 5.078125 8.890625 5.078125 C 6.503906 5.078125 4.660156 4.273438 3.359375 2.671875 C 2.367188 1.421875 1.875 -0.0664062 1.875 -1.796875 C 1.875 -3.304688 2.238281 -4.597656 2.96875 -5.671875 L 5.265625 -6.171875 C 4.441406 -4.910156 4.03125 -3.53125 4.03125 -2.03125 C 4.03125 -0.550781 4.503906 0.660156 5.453125 1.609375 C 6.328125 2.472656 7.472656 2.90625 8.890625 2.90625 C 10.515625 2.90625 11.765625 2.425781 12.640625 1.46875 C 13.390625 0.644531 13.765625 -0.40625 13.765625 -1.6875 L 13.765625 -16 L 16.078125 -17.234375 L 16.078125 -4.84375 C 16.078125 -3.0625 17.003906 -2.171875 18.859375 -2.171875 Z M 18.859375 -2.171875 "/></g></g></g><g fill="#ffffff" fill-opacity="1"><g transform="translate(27.3428, 190.922218)"><g><path d="M -0.796875 0 L -0.796875 -2.171875 L 3.90625 -2.171875 L 3.90625 0 Z M -0.796875 0 "/></g></g></g><g fill="#ffffff" fill-opacity="1"><g transform="translate(30.442428, 190.922218)"><g><path d="M -0.796875 0 L -0.796875 -2.171875 L 3.90625 -2.171875 L 3.90625 0 Z M -0.796875 0 "/></g></g></g><g fill="#ffffff" fill-opacity="1"><g transform="translate(33.542057, 190.922218)"><g><path d="M -0.796875 0 L -0.796875 -2.171875 L 3.90625 -2.171875 L 3.90625 0 Z M -0.796875 0 "/></g></g></g><g fill="#ffffff" fill-opacity="1"><g transform="translate(36.641685, 190.922218)"><g><path d="M -0.796875 0 L -0.796875 -2.171875 L 3.90625 -2.171875 L 3.90625 0 Z M -0.796875 0 "/></g></g></g><g fill="#ffffff" fill-opacity="1"><g transform="translate(39.741313, 190.922218)"><g><path d="M -0.796875 0 L -0.796875 -2.171875 L 3.90625 -2.171875 L 3.90625 0 Z M -0.796875 0 "/></g></g></g><g fill="#ffffff" fill-opacity="1"><g transform="translate(42.840941, 190.922218)"><g><path d="M -0.796875 0 L -0.796875 -2.171875 L 3.90625 -2.171875 L 3.90625 0 Z M -0.796875 0 "/></g></g></g><g fill="#ffffff" fill-opacity="1"><g transform="translate(45.940569, 190.922218)"><g><path d="M -0.796875 0 L -0.796875 -2.171875 L 3.90625 -2.171875 L 3.90625 0 Z M -0.796875 0 "/></g></g></g><g fill="#ffffff" fill-opacity="1"><g transform="translate(49.040197, 190.922218)"><g><path d="M -0.796875 0 L -0.796875 -2.171875 L 3.90625 -2.171875 L 3.90625 0 Z M -0.796875 0 "/></g></g></g><g fill="#ffffff" fill-opacity="1"><g transform="translate(52.139825, 190.922218)"><g><path d="M -0.796875 0 L -0.796875 -2.171875 L 3.90625 -2.171875 L 3.90625 0 Z M -0.796875 0 "/></g></g></g><g fill="#ffffff" fill-opacity="1"><g transform="translate(55.239453, 190.922218)"><g><path d="M -0.796875 0 L -0.796875 -2.171875 L 3.90625 -2.171875 L 3.90625 0 Z M -0.796875 0 "/></g></g></g><g fill="#ffffff" fill-opacity="1"><g transform="translate(58.339081, 190.922218)"><g><path d="M -0.796875 0 L -0.796875 -2.171875 L 3.90625 -2.171875 L 3.90625 0 Z M -0.796875 0 "/></g></g></g><g fill="#ffffff" fill-opacity="1"><g transform="translate(61.43871, 190.922218)"><g><path d="M -0.796875 0 L -0.796875 -2.171875 L 3.90625 -2.171875 L 3.90625 0 Z M -0.796875 0 "/></g></g></g><g fill="#ffffff" fill-opacity="1"><g transform="translate(64.538338, 190.922218)"><g><path d="M -0.796875 0 L -0.796875 -2.171875 L 3.90625 -2.171875 L 3.90625 0 Z M -0.796875 0 "/></g></g></g><g fill="#ffffff" fill-opacity="1"><g transform="translate(67.637966, 190.922218)"><g><path d="M -0.796875 0 L -0.796875 -2.171875 L 3.90625 -2.171875 L 3.90625 0 Z M -0.796875 0 "/></g></g></g><g fill="#ffffff" fill-opacity="1"><g transform="translate(70.737594, 190.922218)"><g><path d="M 18.015625 -14.828125 C 17.140625 -14.828125 16.703125 -15.273438 16.703125 -16.171875 C 16.703125 -17.035156 17.140625 -17.46875 18.015625 -17.46875 C 18.867188 -17.46875 19.296875 -17.035156 19.296875 -16.171875 C 19.296875 -15.273438 18.867188 -14.828125 18.015625 -14.828125 Z M 26.5625 -2.171875 L 28.328125 -2.171875 L 28.328125 0 L 26.296875 0 C 24.796875 0 23.628906 -0.460938 22.796875 -1.390625 C 21.953125 -0.460938 20.785156 0 19.296875 0 L 8.234375 0 C 6.753906 0 5.585938 -0.472656 4.734375 -1.421875 C 3.878906 -0.472656 2.710938 0 1.234375 0 L -0.796875 0 L -0.796875 -2.171875 L 0.96875 -2.171875 C 2.707031 -2.171875 3.578125 -3.0625 3.578125 -4.84375 L 3.578125 -8.578125 L 5.875 -9.8125 L 5.875 -4.84375 C 5.875 -3.34375 6.453125 -2.476562 7.609375 -2.25 C 8.328125 -4.9375 9.503906 -7.179688 11.140625 -8.984375 C 12.972656 -10.953125 15.109375 -11.9375 17.546875 -11.9375 C 19.578125 -11.9375 21.203125 -11.234375 22.421875 -9.828125 C 23.429688 -8.640625 23.9375 -7.171875 23.9375 -5.421875 L 23.9375 -4.78125 C 23.9375 -3.039062 24.8125 -2.171875 26.5625 -2.171875 Z M 19.15625 -2.171875 C 20.8125 -2.171875 21.640625 -3.09375 21.640625 -4.9375 L 21.640625 -5.421875 C 21.640625 -6.816406 21.210938 -7.921875 20.359375 -8.734375 C 19.609375 -9.453125 18.679688 -9.8125 17.578125 -9.8125 C 15.691406 -9.8125 13.992188 -8.9375 12.484375 -7.1875 C 11.316406 -5.851562 10.425781 -4.179688 9.8125 -2.171875 Z M 19.15625 -2.171875 "/></g></g></g><g fill="#ffffff" fill-opacity="1"><g transform="translate(98.260127, 190.922218)"><g><path d="M 7.90625 -14.671875 C 7.03125 -14.671875 6.59375 -15.113281 6.59375 -16 C 6.59375 -16.875 7.03125 -17.3125 7.90625 -17.3125 C 8.757812 -17.3125 9.1875 -16.875 9.1875 -16 C 9.1875 -15.113281 8.757812 -14.671875 7.90625 -14.671875 Z M -0.796875 0 L -0.796875 -2.171875 L 4.015625 -2.171875 C 3.191406 -3.078125 2.78125 -4.335938 2.78125 -5.953125 C 2.78125 -7.898438 3.285156 -9.414062 4.296875 -10.5 C 5.191406 -11.457031 6.378906 -11.9375 7.859375 -11.9375 C 9.367188 -11.9375 10.539062 -11.46875 11.375 -10.53125 C 12.09375 -9.6875 12.453125 -8.585938 12.453125 -7.234375 L 12.453125 -4.703125 C 12.429688 -3.222656 11.992188 -2.054688 11.140625 -1.203125 C 10.304688 -0.398438 9.191406 0 7.796875 0 Z M 10.15625 -7.140625 C 10.15625 -8.921875 9.390625 -9.8125 7.859375 -9.8125 C 6.984375 -9.8125 6.296875 -9.472656 5.796875 -8.796875 C 5.296875 -8.128906 5.046875 -7.203125 5.046875 -6.015625 C 5.046875 -4.835938 5.285156 -3.898438 5.765625 -3.203125 C 6.253906 -2.515625 6.894531 -2.171875 7.6875 -2.171875 C 9.332031 -2.171875 10.15625 -3.023438 10.15625 -4.734375 Z M 10.15625 -7.140625 "/></g></g></g><g fill="#ffffff" fill-opacity="1"><g transform="translate(112.849737, 190.922218)"><g><path d="M 0.984375 -17.609375 L 1.609375 -18.75 L 2.328125 -18.75 C 2.148438 -19.070312 2.0625 -19.40625 2.0625 -19.75 C 2.0625 -20.28125 2.253906 -20.738281 2.640625 -21.125 C 3.035156 -21.507812 3.5 -21.703125 4.03125 -21.703125 C 4.476562 -21.703125 4.90625 -21.554688 5.3125 -21.265625 L 5.3125 -20.09375 C 4.925781 -20.394531 4.550781 -20.546875 4.1875 -20.546875 C 3.53125 -20.546875 3.203125 -20.253906 3.203125 -19.671875 C 3.203125 -19.359375 3.328125 -19.050781 3.578125 -18.75 L 6.015625 -18.75 L 5.390625 -17.609375 Z M 2.40625 0 L 2.40625 -14.9375 L 4.703125 -16.171875 L 4.703125 0 Z M 2.40625 0 "/></g></g></g><g fill="#ffffff" fill-opacity="1"><g transform="translate(119.957501, 190.922218)"><g/></g></g><g fill="#ffffff" fill-opacity="1"><g transform="translate(126.183471, 190.922218)"><g><path d="M 5.1875 -15.09375 C 4.3125 -15.09375 3.875 -15.539062 3.875 -16.4375 C 3.875 -17.300781 4.3125 -17.734375 5.1875 -17.734375 C 6.039062 -17.734375 6.46875 -17.300781 6.46875 -16.4375 C 6.46875 -15.539062 6.039062 -15.09375 5.1875 -15.09375 Z M 8.609375 -15.09375 C 7.734375 -15.09375 7.296875 -15.539062 7.296875 -16.4375 C 7.296875 -17.300781 7.734375 -17.734375 8.609375 -17.734375 C 9.460938 -17.734375 9.890625 -17.300781 9.890625 -16.4375 C 9.890625 -15.539062 9.460938 -15.09375 8.609375 -15.09375 Z M 6.921875 0 C 5.296875 0 4.03125 -0.539062 3.125 -1.625 C 2.34375 -2.570312 1.953125 -3.773438 1.953125 -5.234375 C 1.953125 -6.816406 2.390625 -8.191406 3.265625 -9.359375 C 4.148438 -10.523438 5.410156 -11.382812 7.046875 -11.9375 C 8.773438 -11.351562 10.078125 -10.429688 10.953125 -9.171875 C 11.734375 -8.046875 12.125 -6.734375 12.125 -5.234375 C 12.125 -3.546875 11.628906 -2.21875 10.640625 -1.25 C 9.742188 -0.414062 8.59375 0 7.1875 0 Z M 6.84375 -2.171875 L 7.234375 -2.171875 C 8.035156 -2.171875 8.671875 -2.445312 9.140625 -3 C 9.617188 -3.550781 9.859375 -4.285156 9.859375 -5.203125 C 9.859375 -7.347656 8.921875 -8.882812 7.046875 -9.8125 C 5.179688 -8.882812 4.25 -7.359375 4.25 -5.234375 C 4.25 -4.296875 4.476562 -3.550781 4.9375 -3 C 5.40625 -2.445312 6.039062 -2.171875 6.84375 -2.171875 Z M 6.84375 -2.171875 "/></g></g></g><g fill="#ffffff" fill-opacity="1"><g transform="translate(140.105065, 190.922218)"><g><path d="M 6.359375 -1.421875 C 6.359375 0.578125 5.832031 2.179688 4.78125 3.390625 C 3.78125 4.546875 2.453125 5.125 0.796875 5.125 C -0.265625 5.125 -1.304688 4.859375 -2.328125 4.328125 L -2.328125 2.328125 C -1.421875 2.828125 -0.507812 3.078125 0.40625 3.078125 C 1.539062 3.078125 2.425781 2.691406 3.0625 1.921875 C 3.707031 1.160156 4.03125 0.101562 4.03125 -1.25 L 4.03125 -10.359375 L 6.359375 -11.59375 Z M 6.359375 -1.421875 "/></g></g></g><g fill="#ffffff" fill-opacity="1"><g transform="translate(148.869532, 190.922218)"><g><path d="M 2.40625 0 L 2.40625 -16 L 4.703125 -17.234375 L 4.703125 0 Z M 2.40625 0 "/></g></g></g><g fill="#ffffff" fill-opacity="1"><g transform="translate(155.977296, 190.922218)"><g><path d="M 0.265625 0 L 1.390625 -2.171875 L 6.140625 -2.171875 C 6.859375 -2.171875 7.363281 -2.347656 7.65625 -2.703125 C 7.945312 -3.054688 8.09375 -3.671875 8.09375 -4.546875 C 8.09375 -6.929688 7.015625 -8.738281 4.859375 -9.96875 L 5.984375 -11.859375 C 8.921875 -10.191406 10.390625 -7.742188 10.390625 -4.515625 C 10.390625 -1.503906 9.109375 0 6.546875 0 Z M 0.265625 0 "/></g></g></g><g fill="#ffffff" fill-opacity="1"><g transform="translate(168.242187, 190.922218)"><g><path d="M 12.3125 -16 L 14.640625 -17.234375 L 14.640625 -5.046875 C 14.640625 -3.460938 14.164062 -2.207031 13.21875 -1.28125 C 12.332031 -0.425781 11.164062 0 9.71875 0 L 0.53125 0 L 1.65625 -2.171875 L 5.5625 -2.171875 L 5.5625 -12.53125 L 7.859375 -13.765625 L 7.859375 -2.171875 L 9.53125 -2.171875 C 11.382812 -2.171875 12.3125 -3.140625 12.3125 -5.078125 Z M 8.25 3.609375 C 7.863281 3.304688 7.492188 3.15625 7.140625 3.15625 C 6.472656 3.15625 6.140625 3.445312 6.140625 4.03125 C 6.140625 4.332031 6.265625 4.632812 6.515625 4.9375 L 8.953125 4.9375 L 8.34375 6.09375 L 3.921875 6.09375 L 4.546875 4.9375 L 5.265625 4.9375 C 5.085938 4.625 5 4.285156 5 3.921875 C 5 3.410156 5.191406 2.960938 5.578125 2.578125 C 5.972656 2.191406 6.4375 2 6.96875 2 C 7.414062 2 7.84375 2.144531 8.25 2.4375 Z M 8.25 3.609375 "/></g></g></g><g fill="#ffffff" fill-opacity="1"><g transform="translate(185.290123, 190.922218)"><g/></g></g><g fill="#ffffff" fill-opacity="1"><g transform="translate(191.516086, 190.922218)"><g><path d="M 5.1875 -15.09375 C 4.3125 -15.09375 3.875 -15.539062 3.875 -16.4375 C 3.875 -17.300781 4.3125 -17.734375 5.1875 -17.734375 C 6.039062 -17.734375 6.46875 -17.300781 6.46875 -16.4375 C 6.46875 -15.539062 6.039062 -15.09375 5.1875 -15.09375 Z M 8.609375 -15.09375 C 7.734375 -15.09375 7.296875 -15.539062 7.296875 -16.4375 C 7.296875 -17.300781 7.734375 -17.734375 8.609375 -17.734375 C 9.460938 -17.734375 9.890625 -17.300781 9.890625 -16.4375 C 9.890625 -15.539062 9.460938 -15.09375 8.609375 -15.09375 Z M 6.921875 0 C 5.296875 0 4.03125 -0.539062 3.125 -1.625 C 2.34375 -2.570312 1.953125 -3.773438 1.953125 -5.234375 C 1.953125 -6.816406 2.390625 -8.191406 3.265625 -9.359375 C 4.148438 -10.523438 5.410156 -11.382812 7.046875 -11.9375 C 8.773438 -11.351562 10.078125 -10.429688 10.953125 -9.171875 C 11.734375 -8.046875 12.125 -6.734375 12.125 -5.234375 C 12.125 -3.546875 11.628906 -2.21875 10.640625 -1.25 C 9.742188 -0.414062 8.59375 0 7.1875 0 Z M 6.84375 -2.171875 L 7.234375 -2.171875 C 8.035156 -2.171875 8.671875 -2.445312 9.140625 -3 C 9.617188 -3.550781 9.859375 -4.285156 9.859375 -5.203125 C 9.859375 -7.347656 8.921875 -8.882812 7.046875 -9.8125 C 5.179688 -8.882812 4.25 -7.359375 4.25 -5.234375 C 4.25 -4.296875 4.476562 -3.550781 4.9375 -3 C 5.40625 -2.445312 6.039062 -2.171875 6.84375 -2.171875 Z M 6.84375 -2.171875 "/></g></g></g><g fill="#ffffff" fill-opacity="1"><g transform="translate(205.43768, 190.922218)"><g><path d="M 8.953125 -2.171875 L 10.71875 -2.171875 L 10.71875 0 L 8.6875 0 C 7.78125 0 6.992188 -0.175781 6.328125 -0.53125 C 6.171875 1.226562 5.554688 2.632812 4.484375 3.6875 C 3.503906 4.644531 2.273438 5.125 0.796875 5.125 C -0.265625 5.125 -1.304688 4.859375 -2.328125 4.328125 L -2.328125 2.328125 C -1.421875 2.828125 -0.507812 3.078125 0.40625 3.078125 C 1.539062 3.078125 2.425781 2.691406 3.0625 1.921875 C 3.707031 1.160156 4.03125 0.101562 4.03125 -1.25 L 4.03125 -10.359375 L 6.328125 -11.59375 L 6.328125 -11.5625 L 6.359375 -11.59375 L 6.359375 -4.296875 C 6.515625 -2.878906 7.378906 -2.171875 8.953125 -2.171875 Z M 8.953125 -2.171875 "/></g></g></g><g fill="#ffffff" fill-opacity="1"><g transform="translate(215.351145, 190.922218)"><g><path d="M -0.796875 0 L -0.796875 -2.171875 L 3.90625 -2.171875 L 3.90625 0 Z M -0.796875 0 "/></g></g></g><g fill="#ffffff" fill-opacity="1"><g transform="translate(218.450781, 190.922218)"><g><path d="M -0.796875 0 L -0.796875 -2.171875 L 3.90625 -2.171875 L 3.90625 0 Z M -0.796875 0 "/></g></g></g><g fill="#ffffff" fill-opacity="1"><g transform="translate(221.550416, 190.922218)"><g><path d="M -0.796875 0 L -0.796875 -2.171875 L 3.90625 -2.171875 L 3.90625 0 Z M -0.796875 0 "/></g></g></g><g fill="#ffffff" fill-opacity="1"><g transform="translate(224.650052, 190.922218)"><g><path d="M -0.796875 0 L -0.796875 -2.171875 L 3.90625 -2.171875 L 3.90625 0 Z M -0.796875 0 "/></g></g></g><g fill="#ffffff" fill-opacity="1"><g transform="translate(227.749688, 190.922218)"><g><path d="M -0.796875 0 L -0.796875 -2.171875 L 3.90625 -2.171875 L 3.90625 0 Z M -0.796875 0 "/></g></g></g><g fill="#ffffff" fill-opacity="1"><g transform="translate(230.849323, 190.922218)"><g><path d="M -0.796875 0 L -0.796875 -2.171875 L 3.90625 -2.171875 L 3.90625 0 Z M -0.796875 0 "/></g></g></g><g fill="#ffffff" fill-opacity="1"><g transform="translate(233.948959, 190.922218)"><g><path d="M -0.796875 0 L -0.796875 -2.171875 L 3.90625 -2.171875 L 3.90625 0 Z M -0.796875 0 "/></g></g></g><g fill="#ffffff" fill-opacity="1"><g transform="translate(237.048594, 190.922218)"><g><path d="M 13.8125 -2.171875 L 15.34375 -2.171875 L 15.34375 0 L 13.578125 0 C 12.078125 0 10.910156 -0.460938 10.078125 -1.390625 C 9.234375 -0.460938 8.066406 0 6.578125 0 L -0.796875 0 L -0.796875 -2.171875 L 6.359375 -2.171875 C 8.066406 -2.171875 8.921875 -3.066406 8.921875 -4.859375 L 8.921875 -5.109375 C 8.921875 -6.441406 8.40625 -7.457031 7.375 -8.15625 C 6.550781 -8.71875 5.546875 -9 4.359375 -9 C 3.410156 -9 2.460938 -8.820312 1.515625 -8.46875 L 1.515625 -10.734375 L 7.375 -17.234375 L 9.71875 -17.234375 L 4.46875 -11.296875 C 4.476562 -11.296875 4.503906 -11.296875 4.546875 -11.296875 C 4.578125 -11.296875 4.601562 -11.296875 4.625 -11.296875 C 6.65625 -11.296875 8.289062 -10.679688 9.53125 -9.453125 C 10.65625 -8.316406 11.21875 -6.875 11.21875 -5.125 L 11.21875 -4.84375 C 11.21875 -3.0625 12.082031 -2.171875 13.8125 -2.171875 Z M 13.8125 -2.171875 "/></g></g></g><g fill="#ffffff" fill-opacity="1"><g transform="translate(251.584777, 190.922218)"><g><path d="M 2.1875 -14.640625 C 1.3125 -14.640625 0.875 -15.085938 0.875 -15.984375 C 0.875 -16.847656 1.3125 -17.28125 2.1875 -17.28125 C 3.039062 -17.28125 3.46875 -16.847656 3.46875 -15.984375 C 3.46875 -15.085938 3.039062 -14.640625 2.1875 -14.640625 Z M 5.609375 -14.640625 C 4.734375 -14.640625 4.296875 -15.085938 4.296875 -15.984375 C 4.296875 -16.847656 4.734375 -17.28125 5.609375 -17.28125 C 6.460938 -17.28125 6.890625 -16.847656 6.890625 -15.984375 C 6.890625 -15.085938 6.460938 -14.640625 5.609375 -14.640625 Z M 8.5 -2.171875 L 10.265625 -2.171875 L 10.265625 0 L 8.234375 0 C 6.753906 0 5.585938 -0.472656 4.734375 -1.421875 C 3.878906 -0.472656 2.710938 0 1.234375 0 L -0.796875 0 L -0.796875 -2.171875 L 0.96875 -2.171875 C 2.707031 -2.171875 3.578125 -3.0625 3.578125 -4.84375 L 3.578125 -10.359375 L 5.875 -11.59375 L 5.875 -4.84375 C 5.875 -3.0625 6.75 -2.171875 8.5 -2.171875 Z M 8.5 -2.171875 "/></g></g></g><g fill="#ffffff" fill-opacity="1"><g transform="translate(261.043981, 190.922218)"><g><path d="M 8.5 -2.171875 L 10.265625 -2.171875 L 10.265625 0 L 8.234375 0 C 6.753906 0 5.585938 -0.472656 4.734375 -1.421875 C 3.878906 -0.472656 2.710938 0 1.234375 0 L -0.796875 0 L -0.796875 -2.171875 L 0.96875 -2.171875 C 2.707031 -2.171875 3.578125 -3.0625 3.578125 -4.84375 L 3.578125 -10.359375 L 5.875 -11.59375 L 5.875 -4.84375 C 5.875 -3.0625 6.75 -2.171875 8.5 -2.171875 Z M 4.5625 2.671875 C 5.414062 2.671875 5.84375 3.109375 5.84375 3.984375 C 5.84375 4.867188 5.414062 5.3125 4.5625 5.3125 C 3.695312 5.3125 3.265625 4.867188 3.265625 3.984375 C 3.265625 3.109375 3.695312 2.671875 4.5625 2.671875 Z M 4.5625 2.671875 "/></g></g></g><g fill="#ffffff" fill-opacity="1"><g transform="translate(270.503186, 190.922218)"><g><path d="M -0.796875 0 L -0.796875 -2.171875 L 3.90625 -2.171875 L 3.90625 0 Z M -0.796875 0 "/></g></g></g><g fill="#ffffff" fill-opacity="1"><g transform="translate(273.602821, 190.922218)"><g><path d="M -0.796875 0 L -0.796875 -2.171875 L 3.90625 -2.171875 L 3.90625 0 Z M -0.796875 0 "/></g></g></g><g fill="#ffffff" fill-opacity="1"><g transform="translate(276.702457, 190.922218)"><g><path d="M 3.578125 -7.234375 C 3.578125 -8.785156 4.039062 -9.988281 4.96875 -10.84375 C 5.789062 -11.570312 6.859375 -11.9375 8.171875 -11.9375 C 9.867188 -11.9375 11.171875 -11.316406 12.078125 -10.078125 C 12.859375 -9.023438 13.25 -7.648438 13.25 -5.953125 C 13.25 -4.035156 12.75 -2.53125 11.75 -1.4375 C 10.882812 -0.476562 9.75 0 8.34375 0 C 6.738281 0 5.515625 -0.445312 4.671875 -1.34375 C 3.816406 -0.445312 2.671875 0 1.234375 0 L -0.796875 0 L -0.796875 -2.171875 L 0.96875 -2.171875 C 2.707031 -2.171875 3.578125 -3.0625 3.578125 -4.84375 Z M 5.875 -4.65625 C 5.875 -3 6.6875 -2.171875 8.3125 -2.171875 C 9.144531 -2.171875 9.796875 -2.503906 10.265625 -3.171875 C 10.742188 -3.847656 10.984375 -4.796875 10.984375 -6.015625 C 10.984375 -7.203125 10.734375 -8.128906 10.234375 -8.796875 C 9.734375 -9.472656 9.046875 -9.8125 8.171875 -9.8125 C 6.640625 -9.8125 5.875 -8.921875 5.875 -7.140625 Z M 5.875 -4.65625 "/></g></g></g><g fill="#ffffff" fill-opacity="1"><g transform="translate(291.960099, 190.922218)"><g/></g></g><g fill="#ffffff" fill-opacity="1"><g transform="translate(298.186076, 190.922218)"><g><path d="M 16.078125 -1.6875 C 16.078125 0.4375 15.335938 2.128906 13.859375 3.390625 C 12.566406 4.515625 10.910156 5.078125 8.890625 5.078125 C 6.503906 5.078125 4.660156 4.273438 3.359375 2.671875 C 2.367188 1.421875 1.875 -0.0664062 1.875 -1.796875 C 1.875 -3.304688 2.238281 -4.597656 2.96875 -5.671875 L 5.265625 -6.171875 C 4.441406 -4.910156 4.03125 -3.53125 4.03125 -2.03125 C 4.03125 -0.550781 4.503906 0.660156 5.453125 1.609375 C 6.328125 2.472656 7.472656 2.90625 8.890625 2.90625 C 10.515625 2.90625 11.765625 2.425781 12.640625 1.46875 C 13.390625 0.644531 13.765625 -0.40625 13.765625 -1.6875 L 13.765625 -16 L 16.078125 -17.234375 Z M 16.078125 -1.6875 "/></g></g></g><g fill="#ffffff" fill-opacity="1"><g transform="translate(316.676945, 190.922218)"><g><path d="M 14.875 -2.171875 L 14.875 0 L 11.5625 0 C 11.5 1.53125 10.84375 2.796875 9.59375 3.796875 C 8.539062 4.609375 7.347656 5.015625 6.015625 5.015625 C 4.910156 5.015625 3.867188 4.757812 2.890625 4.25 L 2.890625 2.21875 C 3.828125 2.71875 4.757812 2.96875 5.6875 2.96875 C 6.632812 2.96875 7.457031 2.671875 8.15625 2.078125 C 8.863281 1.492188 9.226562 0.789062 9.25 -0.03125 C 8.320312 -0.0625 7.632812 -0.0976562 7.1875 -0.140625 C 5.257812 -0.242188 3.804688 -0.890625 2.828125 -2.078125 C 2.015625 -3.078125 1.609375 -4.367188 1.609375 -5.953125 C 1.609375 -7.898438 2.125 -9.414062 3.15625 -10.5 C 4.082031 -11.457031 5.300781 -11.9375 6.8125 -11.9375 C 8.394531 -11.9375 9.613281 -11.46875 10.46875 -10.53125 C 11.195312 -9.6875 11.5625 -8.585938 11.5625 -7.234375 L 11.5625 -2.171875 Z M 9.25 -7.078125 C 9.25 -8.898438 8.4375 -9.8125 6.8125 -9.8125 C 5.882812 -9.8125 5.160156 -9.472656 4.640625 -8.796875 C 4.128906 -8.128906 3.875 -7.203125 3.875 -6.015625 C 3.875 -3.679688 5.015625 -2.441406 7.296875 -2.296875 C 7.722656 -2.242188 8.375 -2.203125 9.25 -2.171875 Z M 9.25 -7.078125 "/></g></g></g><g fill="#ffffff" fill-opacity="1"><g transform="translate(330.758852, 190.922218)"><g><path d="M -0.796875 0 L -0.796875 -2.171875 L 3.90625 -2.171875 L 3.90625 0 Z M -0.796875 0 "/></g></g></g><g fill="#ffffff" fill-opacity="1"><g transform="translate(333.858487, 190.922218)"><g><path d="M -0.796875 0 L -0.796875 -2.171875 L 3.90625 -2.171875 L 3.90625 0 Z M -0.796875 0 "/></g></g></g><g fill="#ffffff" fill-opacity="1"><g transform="translate(336.958123, 190.922218)"><g><path d="M -0.796875 0 L -0.796875 -2.171875 L 3.90625 -2.171875 L 3.90625 0 Z M -0.796875 0 "/></g></g></g><g fill="#ffffff" fill-opacity="1"><g transform="translate(340.057758, 190.922218)"><g><path d="M -0.796875 0 L -0.796875 -2.171875 L 3.90625 -2.171875 L 3.90625 0 Z M -0.796875 0 "/></g></g></g><g fill="#ffffff" fill-opacity="1"><g transform="translate(343.157394, 190.922218)"><g><path d="M 8.3125 -2.171875 L 10.078125 -2.171875 L 10.078125 0 L 8.046875 0 C 6.515625 0 5.328125 -0.488281 4.484375 -1.46875 C 3.597656 -0.488281 2.367188 0 0.796875 0 L -0.796875 0 L -0.796875 -2.171875 L 0.609375 -2.171875 C 2.460938 -2.171875 3.390625 -3.140625 3.390625 -5.078125 L 3.390625 -16 L 5.71875 -17.234375 L 5.71875 -5.046875 C 5.71875 -4.015625 5.914062 -3.273438 6.3125 -2.828125 C 6.71875 -2.390625 7.382812 -2.171875 8.3125 -2.171875 Z M 8.3125 -2.171875 "/></g></g></g><g fill="#ffffff" fill-opacity="1"><g transform="translate(352.429534, 190.922218)"><g><path d="M -0.796875 0 L -0.796875 -2.171875 L 2.859375 -2.171875 C 6.472656 -2.171875 9.332031 -3.363281 11.4375 -5.75 C 9.957031 -8.46875 8.15625 -9.828125 6.03125 -9.828125 C 4.59375 -9.828125 3.109375 -9.0625 1.578125 -7.53125 L 1.578125 -9.671875 C 3.078125 -11.179688 4.660156 -11.9375 6.328125 -11.9375 C 7.703125 -11.9375 9.03125 -11.441406 10.3125 -10.453125 C 11.59375 -9.472656 12.722656 -8.0625 13.703125 -6.21875 L 13.703125 -5.046875 C 11.085938 -1.679688 7.460938 0 2.828125 0 Z M -0.796875 0 "/></g></g></g><g fill="#ffffff" fill-opacity="1"><g transform="translate(13.925879, 221.078364)"><g><path d="M 2.3125 -10.09375 L 2.3125 0 L 1.4375 0 L 1.4375 -10.09375 Z M 2.3125 -10.09375 "/></g></g></g><g fill="#ffffff" fill-opacity="1"><g transform="translate(19.205362, 221.078364)"><g><path d="M 1.9375 -6.421875 C 2.664062 -7.097656 3.492188 -7.4375 4.421875 -7.4375 C 5.296875 -7.4375 5.96875 -7.15625 6.4375 -6.59375 C 6.90625 -6.0625 7.140625 -5.3125 7.140625 -4.34375 L 7.140625 0 L 6.390625 0 L 6.390625 -4.265625 C 6.390625 -5.921875 5.671875 -6.75 4.234375 -6.75 C 3.296875 -6.75 2.550781 -6.378906 2 -5.640625 L 2 0 L 1.25 0 L 1.25 -7.25 L 1.859375 -7.25 Z M 1.9375 -6.421875 "/></g></g></g><g fill="#ffffff" fill-opacity="1"><g transform="translate(29.046299, 221.078364)"><g><path d="M 1.9375 -6.421875 C 2.664062 -7.097656 3.492188 -7.4375 4.421875 -7.4375 C 5.296875 -7.4375 5.96875 -7.15625 6.4375 -6.59375 C 6.90625 -6.0625 7.140625 -5.3125 7.140625 -4.34375 L 7.140625 0 L 6.390625 0 L 6.390625 -4.265625 C 6.390625 -5.921875 5.671875 -6.75 4.234375 -6.75 C 3.296875 -6.75 2.550781 -6.378906 2 -5.640625 L 2 0 L 1.25 0 L 1.25 -7.25 L 1.859375 -7.25 Z M 1.9375 -6.421875 "/></g></g></g><g fill="#ffffff" fill-opacity="1"><g transform="translate(38.887236, 221.078364)"><g><path d="M 4.21875 -7.4375 C 5.3125 -7.4375 6.1875 -7.015625 6.84375 -6.171875 C 7.382812 -5.460938 7.65625 -4.609375 7.65625 -3.609375 C 7.65625 -2.453125 7.304688 -1.515625 6.609375 -0.796875 C 5.972656 -0.140625 5.175781 0.1875 4.21875 0.1875 C 3.101562 0.1875 2.222656 -0.226562 1.578125 -1.0625 C 1.035156 -1.769531 0.765625 -2.617188 0.765625 -3.609375 C 0.765625 -4.765625 1.113281 -5.707031 1.8125 -6.4375 C 2.445312 -7.101562 3.25 -7.4375 4.21875 -7.4375 Z M 4.21875 -6.765625 C 3.375 -6.765625 2.707031 -6.421875 2.21875 -5.734375 C 1.8125 -5.148438 1.609375 -4.441406 1.609375 -3.609375 C 1.609375 -2.660156 1.875 -1.890625 2.40625 -1.296875 C 2.882812 -0.753906 3.488281 -0.484375 4.21875 -0.484375 C 5.039062 -0.484375 5.695312 -0.828125 6.1875 -1.515625 C 6.601562 -2.085938 6.8125 -2.785156 6.8125 -3.609375 C 6.8125 -4.578125 6.550781 -5.359375 6.03125 -5.953125 C 5.550781 -6.492188 4.945312 -6.765625 4.21875 -6.765625 Z M 4.21875 -6.765625 "/></g></g></g><g fill="#ffffff" fill-opacity="1"><g transform="translate(48.600537, 221.078364)"><g><path d="M 3.84375 0 L 2.9375 0 L 0.234375 -7.25 L 1.078125 -7.25 L 3.40625 -0.859375 L 5.6875 -7.25 L 6.546875 -7.25 Z M 3.84375 0 "/></g></g></g><g fill="#ffffff" fill-opacity="1"><g transform="translate(56.750838, 221.078364)"><g><path d="M 6.375 0 L 5.84375 0 L 5.6875 -0.8125 C 4.976562 -0.144531 4.132812 0.1875 3.15625 0.1875 C 2.445312 0.1875 1.867188 -0.0078125 1.421875 -0.40625 C 0.984375 -0.8125 0.765625 -1.347656 0.765625 -2.015625 C 0.765625 -3.671875 1.9375 -4.5 4.28125 -4.5 L 5.625 -4.5 L 5.625 -4.625 C 5.625 -6.039062 4.945312 -6.75 3.59375 -6.75 C 2.894531 -6.75 2.210938 -6.507812 1.546875 -6.03125 L 1.25 -6.484375 C 1.882812 -7.117188 2.722656 -7.4375 3.765625 -7.4375 C 4.609375 -7.4375 5.253906 -7.175781 5.703125 -6.65625 C 6.148438 -6.144531 6.375 -5.410156 6.375 -4.453125 Z M 5.625 -3.859375 L 4.40625 -3.859375 C 3.40625 -3.859375 2.6875 -3.722656 2.25 -3.453125 C 1.820312 -3.191406 1.609375 -2.75 1.609375 -2.125 C 1.609375 -1.613281 1.765625 -1.210938 2.078125 -0.921875 C 2.390625 -0.640625 2.820312 -0.5 3.375 -0.5 C 3.820312 -0.5 4.265625 -0.609375 4.703125 -0.828125 C 5.140625 -1.046875 5.445312 -1.304688 5.625 -1.609375 Z M 5.625 -3.859375 "/></g></g></g><g fill="#ffffff" fill-opacity="1"><g transform="translate(65.905965, 221.078364)"><g><path d="M 2.53125 -6.609375 L 2.53125 -1.765625 C 2.53125 -0.898438 2.894531 -0.46875 3.625 -0.46875 C 3.90625 -0.46875 4.226562 -0.546875 4.59375 -0.703125 L 4.859375 -0.25 C 4.429688 0.0390625 3.972656 0.1875 3.484375 0.1875 C 2.984375 0.1875 2.570312 0.0078125 2.25 -0.34375 C 1.9375 -0.707031 1.78125 -1.179688 1.78125 -1.765625 L 1.78125 -6.609375 L 0.671875 -6.609375 L 0.671875 -7.25 L 1.796875 -7.25 L 1.796875 -8.90625 L 2.53125 -9.28125 L 2.53125 -7.25 L 4.8125 -7.25 L 4.8125 -6.609375 Z M 2.53125 -6.609375 "/></g></g></g><g fill="#ffffff" fill-opacity="1"><g transform="translate(72.971759, 221.078364)"><g><path d="M 2.109375 -7.25 L 2.109375 0 L 1.359375 0 L 1.359375 -7.25 Z M 1.171875 -9.71875 C 1.171875 -9.875 1.222656 -10.007812 1.328125 -10.125 C 1.441406 -10.238281 1.578125 -10.296875 1.734375 -10.296875 C 1.898438 -10.296875 2.035156 -10.238281 2.140625 -10.125 C 2.253906 -10.007812 2.3125 -9.875 2.3125 -9.71875 C 2.3125 -9.550781 2.253906 -9.410156 2.140625 -9.296875 C 2.035156 -9.191406 1.898438 -9.140625 1.734375 -9.140625 C 1.578125 -9.140625 1.441406 -9.191406 1.328125 -9.296875 C 1.222656 -9.410156 1.171875 -9.550781 1.171875 -9.71875 Z M 1.171875 -9.71875 "/></g></g></g><g fill="#ffffff" fill-opacity="1"><g transform="translate(77.980105, 221.078364)"><g><path d="M 3.84375 0 L 2.9375 0 L 0.234375 -7.25 L 1.078125 -7.25 L 3.40625 -0.859375 L 5.6875 -7.25 L 6.546875 -7.25 Z M 3.84375 0 "/></g></g></g><g fill="#ffffff" fill-opacity="1"><g transform="translate(86.130403, 221.078364)"><g><path d="M 6.84375 -3.34375 L 1.609375 -3.34375 C 1.628906 -2.46875 1.9375 -1.757812 2.53125 -1.21875 C 3.082031 -0.738281 3.78125 -0.5 4.625 -0.5 C 5.332031 -0.5 5.957031 -0.6875 6.5 -1.0625 L 6.796875 -0.578125 C 6.160156 -0.0664062 5.351562 0.1875 4.375 0.1875 C 3.257812 0.1875 2.359375 -0.191406 1.671875 -0.953125 C 1.066406 -1.648438 0.765625 -2.53125 0.765625 -3.59375 C 0.765625 -4.71875 1.085938 -5.65625 1.734375 -6.40625 C 2.328125 -7.09375 3.054688 -7.4375 3.921875 -7.4375 C 4.953125 -7.4375 5.726562 -6.984375 6.25 -6.078125 C 6.644531 -5.398438 6.84375 -4.566406 6.84375 -3.578125 Z M 1.625 -3.984375 L 6.046875 -3.984375 C 6.023438 -4.867188 5.828125 -5.550781 5.453125 -6.03125 C 5.078125 -6.519531 4.5625 -6.765625 3.90625 -6.765625 C 3.289062 -6.765625 2.769531 -6.503906 2.34375 -5.984375 C 1.914062 -5.472656 1.675781 -4.804688 1.625 -3.984375 Z M 1.625 -3.984375 "/></g></g></g><g fill="#ffffff" fill-opacity="1"><g transform="translate(95.269574, 221.078364)"><g/></g></g><g fill="#ffffff" fill-opacity="1"><g transform="translate(100.309815, 221.078364)"><g><path d="M 4.875 -6.359375 C 4.363281 -6.617188 3.789062 -6.75 3.15625 -6.75 C 2.675781 -6.75 2.296875 -6.644531 2.015625 -6.4375 C 1.742188 -6.238281 1.609375 -5.957031 1.609375 -5.59375 C 1.609375 -5.21875 1.726562 -4.925781 1.96875 -4.71875 C 2.207031 -4.519531 2.675781 -4.304688 3.375 -4.078125 C 4.21875 -3.816406 4.8125 -3.519531 5.15625 -3.1875 C 5.5 -2.863281 5.671875 -2.421875 5.671875 -1.859375 C 5.671875 -1.253906 5.4375 -0.757812 4.96875 -0.375 C 4.507812 0 3.910156 0.1875 3.171875 0.1875 C 2.253906 0.1875 1.453125 -0.0507812 0.765625 -0.53125 L 0.96875 -0.953125 C 1.601562 -0.648438 2.269531 -0.5 2.96875 -0.5 C 4.21875 -0.5 4.84375 -0.960938 4.84375 -1.890625 C 4.84375 -2.242188 4.707031 -2.53125 4.4375 -2.75 C 4.175781 -2.96875 3.695312 -3.179688 3 -3.390625 C 1.507812 -3.847656 0.765625 -4.570312 0.765625 -5.5625 C 0.765625 -6.101562 0.976562 -6.550781 1.40625 -6.90625 C 1.832031 -7.257812 2.378906 -7.4375 3.046875 -7.4375 C 3.804688 -7.4375 4.5 -7.226562 5.125 -6.8125 Z M 4.875 -6.359375 "/></g></g></g><g fill="#ffffff" fill-opacity="1"><g transform="translate(108.12518, 221.078364)"><g><path d="M 4.21875 -7.4375 C 5.3125 -7.4375 6.1875 -7.015625 6.84375 -6.171875 C 7.382812 -5.460938 7.65625 -4.609375 7.65625 -3.609375 C 7.65625 -2.453125 7.304688 -1.515625 6.609375 -0.796875 C 5.972656 -0.140625 5.175781 0.1875 4.21875 0.1875 C 3.101562 0.1875 2.222656 -0.226562 1.578125 -1.0625 C 1.035156 -1.769531 0.765625 -2.617188 0.765625 -3.609375 C 0.765625 -4.765625 1.113281 -5.707031 1.8125 -6.4375 C 2.445312 -7.101562 3.25 -7.4375 4.21875 -7.4375 Z M 4.21875 -6.765625 C 3.375 -6.765625 2.707031 -6.421875 2.21875 -5.734375 C 1.8125 -5.148438 1.609375 -4.441406 1.609375 -3.609375 C 1.609375 -2.660156 1.875 -1.890625 2.40625 -1.296875 C 2.882812 -0.753906 3.488281 -0.484375 4.21875 -0.484375 C 5.039062 -0.484375 5.695312 -0.828125 6.1875 -1.515625 C 6.601562 -2.085938 6.8125 -2.785156 6.8125 -3.609375 C 6.8125 -4.578125 6.550781 -5.359375 6.03125 -5.953125 C 5.550781 -6.492188 4.945312 -6.765625 4.21875 -6.765625 Z M 4.21875 -6.765625 "/></g></g></g><g fill="#ffffff" fill-opacity="1"><g transform="translate(118.077762, 221.078364)"><g><path d="M 2 -10.296875 L 2 0 L 1.25 0 L 1.25 -9.875 Z M 2 -10.296875 "/></g></g></g><g fill="#ffffff" fill-opacity="1"><g transform="translate(122.84687, 221.078364)"><g><path d="M 6.203125 -0.8125 C 5.472656 -0.144531 4.644531 0.1875 3.71875 0.1875 C 2.957031 0.1875 2.34375 -0.125 1.875 -0.75 C 1.457031 -1.3125 1.25 -2.03125 1.25 -2.90625 L 1.25 -7.25 L 2 -7.25 L 2 -2.984375 C 2 -1.328125 2.632812 -0.5 3.90625 -0.5 C 4.832031 -0.5 5.578125 -0.875 6.140625 -1.625 L 6.140625 -7.25 L 6.890625 -7.25 L 6.890625 0 L 6.265625 0 Z M 6.203125 -0.8125 "/></g></g></g><g fill="#ffffff" fill-opacity="1"><g transform="translate(132.512366, 221.078364)"><g><path d="M 2.53125 -6.609375 L 2.53125 -1.765625 C 2.53125 -0.898438 2.894531 -0.46875 3.625 -0.46875 C 3.90625 -0.46875 4.226562 -0.546875 4.59375 -0.703125 L 4.859375 -0.25 C 4.429688 0.0390625 3.972656 0.1875 3.484375 0.1875 C 2.984375 0.1875 2.570312 0.0078125 2.25 -0.34375 C 1.9375 -0.707031 1.78125 -1.179688 1.78125 -1.765625 L 1.78125 -6.609375 L 0.671875 -6.609375 L 0.671875 -7.25 L 1.796875 -7.25 L 1.796875 -8.90625 L 2.53125 -9.28125 L 2.53125 -7.25 L 4.8125 -7.25 L 4.8125 -6.609375 Z M 2.53125 -6.609375 "/></g></g></g><g fill="#ffffff" fill-opacity="1"><g transform="translate(139.578154, 221.078364)"><g><path d="M 2.109375 -7.25 L 2.109375 0 L 1.359375 0 L 1.359375 -7.25 Z M 1.171875 -9.71875 C 1.171875 -9.875 1.222656 -10.007812 1.328125 -10.125 C 1.441406 -10.238281 1.578125 -10.296875 1.734375 -10.296875 C 1.898438 -10.296875 2.035156 -10.238281 2.140625 -10.125 C 2.253906 -10.007812 2.3125 -9.875 2.3125 -9.71875 C 2.3125 -9.550781 2.253906 -9.410156 2.140625 -9.296875 C 2.035156 -9.191406 1.898438 -9.140625 1.734375 -9.140625 C 1.578125 -9.140625 1.441406 -9.191406 1.328125 -9.296875 C 1.222656 -9.410156 1.171875 -9.550781 1.171875 -9.71875 Z M 1.171875 -9.71875 "/></g></g></g><g fill="#ffffff" fill-opacity="1"><g transform="translate(144.5865, 221.078364)"><g><path d="M 4.21875 -7.4375 C 5.3125 -7.4375 6.1875 -7.015625 6.84375 -6.171875 C 7.382812 -5.460938 7.65625 -4.609375 7.65625 -3.609375 C 7.65625 -2.453125 7.304688 -1.515625 6.609375 -0.796875 C 5.972656 -0.140625 5.175781 0.1875 4.21875 0.1875 C 3.101562 0.1875 2.222656 -0.226562 1.578125 -1.0625 C 1.035156 -1.769531 0.765625 -2.617188 0.765625 -3.609375 C 0.765625 -4.765625 1.113281 -5.707031 1.8125 -6.4375 C 2.445312 -7.101562 3.25 -7.4375 4.21875 -7.4375 Z M 4.21875 -6.765625 C 3.375 -6.765625 2.707031 -6.421875 2.21875 -5.734375 C 1.8125 -5.148438 1.609375 -4.441406 1.609375 -3.609375 C 1.609375 -2.660156 1.875 -1.890625 2.40625 -1.296875 C 2.882812 -0.753906 3.488281 -0.484375 4.21875 -0.484375 C 5.039062 -0.484375 5.695312 -0.828125 6.1875 -1.515625 C 6.601562 -2.085938 6.8125 -2.785156 6.8125 -3.609375 C 6.8125 -4.578125 6.550781 -5.359375 6.03125 -5.953125 C 5.550781 -6.492188 4.945312 -6.765625 4.21875 -6.765625 Z M 4.21875 -6.765625 "/></g></g></g><g fill="#ffffff" fill-opacity="1"><g transform="translate(154.539083, 221.078364)"><g><path d="M 1.9375 -6.421875 C 2.664062 -7.097656 3.492188 -7.4375 4.421875 -7.4375 C 5.296875 -7.4375 5.96875 -7.15625 6.4375 -6.59375 C 6.90625 -6.0625 7.140625 -5.3125 7.140625 -4.34375 L 7.140625 0 L 6.390625 0 L 6.390625 -4.265625 C 6.390625 -5.921875 5.671875 -6.75 4.234375 -6.75 C 3.296875 -6.75 2.550781 -6.378906 2 -5.640625 L 2 0 L 1.25 0 L 1.25 -7.25 L 1.859375 -7.25 Z M 1.9375 -6.421875 "/></g></g></g><g fill="#ffffff" fill-opacity="1"><g transform="translate(164.380017, 221.078364)"><g><path d="M 4.875 -6.359375 C 4.363281 -6.617188 3.789062 -6.75 3.15625 -6.75 C 2.675781 -6.75 2.296875 -6.644531 2.015625 -6.4375 C 1.742188 -6.238281 1.609375 -5.957031 1.609375 -5.59375 C 1.609375 -5.21875 1.726562 -4.925781 1.96875 -4.71875 C 2.207031 -4.519531 2.675781 -4.304688 3.375 -4.078125 C 4.21875 -3.816406 4.8125 -3.519531 5.15625 -3.1875 C 5.5 -2.863281 5.671875 -2.421875 5.671875 -1.859375 C 5.671875 -1.253906 5.4375 -0.757812 4.96875 -0.375 C 4.507812 0 3.910156 0.1875 3.171875 0.1875 C 2.253906 0.1875 1.453125 -0.0507812 0.765625 -0.53125 L 0.96875 -0.953125 C 1.601562 -0.648438 2.269531 -0.5 2.96875 -0.5 C 4.21875 -0.5 4.84375 -0.960938 4.84375 -1.890625 C 4.84375 -2.242188 4.707031 -2.53125 4.4375 -2.75 C 4.175781 -2.96875 3.695312 -3.179688 3 -3.390625 C 1.507812 -3.847656 0.765625 -4.570312 0.765625 -5.5625 C 0.765625 -6.101562 0.976562 -6.550781 1.40625 -6.90625 C 1.832031 -7.257812 2.378906 -7.4375 3.046875 -7.4375 C 3.804688 -7.4375 4.5 -7.226562 5.125 -6.8125 Z M 4.875 -6.359375 "/></g></g></g><g fill="#ffffff" fill-opacity="1"><g transform="translate(172.3549, 221.078364)"><g/></g></g><g fill="#ffffff" fill-opacity="1"><g transform="translate(177.395141, 221.078364)"><g><path d="M 0.671875 -6.625 L 0.671875 -7.25 L 1.65625 -7.25 L 1.65625 -8.328125 C 1.65625 -8.910156 1.8125 -9.382812 2.125 -9.75 C 2.4375 -10.113281 2.84375 -10.296875 3.34375 -10.296875 C 3.832031 -10.296875 4.296875 -10.144531 4.734375 -9.84375 L 4.46875 -9.390625 C 4.070312 -9.554688 3.75 -9.640625 3.5 -9.640625 C 2.769531 -9.640625 2.40625 -9.203125 2.40625 -8.328125 L 2.40625 -7.25 L 4.09375 -7.25 L 4.09375 -6.625 L 2.40625 -6.625 L 2.40625 0 L 1.65625 0 L 1.65625 -6.625 Z M 0.671875 -6.625 "/></g></g></g><g fill="#ffffff" fill-opacity="1"><g transform="translate(183.583659, 221.078364)"><g><path d="M 4.21875 -7.4375 C 5.3125 -7.4375 6.1875 -7.015625 6.84375 -6.171875 C 7.382812 -5.460938 7.65625 -4.609375 7.65625 -3.609375 C 7.65625 -2.453125 7.304688 -1.515625 6.609375 -0.796875 C 5.972656 -0.140625 5.175781 0.1875 4.21875 0.1875 C 3.101562 0.1875 2.222656 -0.226562 1.578125 -1.0625 C 1.035156 -1.769531 0.765625 -2.617188 0.765625 -3.609375 C 0.765625 -4.765625 1.113281 -5.707031 1.8125 -6.4375 C 2.445312 -7.101562 3.25 -7.4375 4.21875 -7.4375 Z M 4.21875 -6.765625 C 3.375 -6.765625 2.707031 -6.421875 2.21875 -5.734375 C 1.8125 -5.148438 1.609375 -4.441406 1.609375 -3.609375 C 1.609375 -2.660156 1.875 -1.890625 2.40625 -1.296875 C 2.882812 -0.753906 3.488281 -0.484375 4.21875 -0.484375 C 5.039062 -0.484375 5.695312 -0.828125 6.1875 -1.515625 C 6.601562 -2.085938 6.8125 -2.785156 6.8125 -3.609375 C 6.8125 -4.578125 6.550781 -5.359375 6.03125 -5.953125 C 5.550781 -6.492188 4.945312 -6.765625 4.21875 -6.765625 Z M 4.21875 -6.765625 "/></g></g></g><g fill="#ffffff" fill-opacity="1"><g transform="translate(193.536242, 221.078364)"><g><path d="M 1.9375 -6.421875 C 2.675781 -7.097656 3.378906 -7.4375 4.046875 -7.4375 C 4.773438 -7.4375 5.316406 -7.222656 5.671875 -6.796875 L 5.0625 -6.296875 C 4.707031 -6.585938 4.3125 -6.734375 3.875 -6.734375 C 3.21875 -6.734375 2.59375 -6.367188 2 -5.640625 L 2 0 L 1.25 0 L 1.25 -7.25 L 1.859375 -7.25 Z M 1.9375 -6.421875 "/></g></g></g><g fill="#ffffff" fill-opacity="1"><g transform="translate(201.064554, 221.078364)"><g/></g></g><g fill="#ffffff" fill-opacity="1"><g transform="translate(206.104807, 221.078364)"><g><path d="M 1.78125 0 L 1.25 0 L 1.25 -9.875 L 2 -10.296875 L 2 -6.515625 C 2.53125 -7.128906 3.238281 -7.4375 4.125 -7.4375 C 5.238281 -7.4375 6.101562 -7.035156 6.71875 -6.234375 C 7.226562 -5.578125 7.484375 -4.753906 7.484375 -3.765625 C 7.484375 -2.429688 7.113281 -1.410156 6.375 -0.703125 C 5.769531 -0.109375 5.015625 0.1875 4.109375 0.1875 C 3.222656 0.1875 2.5 -0.128906 1.9375 -0.765625 Z M 2 -5.609375 L 2 -1.578125 C 2.40625 -0.859375 3.101562 -0.5 4.09375 -0.5 C 4.863281 -0.5 5.488281 -0.800781 5.96875 -1.40625 C 6.414062 -1.96875 6.640625 -2.703125 6.640625 -3.609375 C 6.640625 -4.648438 6.375 -5.453125 5.84375 -6.015625 C 5.375 -6.503906 4.773438 -6.75 4.046875 -6.75 C 3.609375 -6.75 3.195312 -6.640625 2.8125 -6.421875 C 2.4375 -6.210938 2.164062 -5.941406 2 -5.609375 Z M 2 -5.609375 "/></g></g></g><g fill="#ffffff" fill-opacity="1"><g transform="translate(215.881951, 221.078364)"><g><path d="M 6.84375 -3.34375 L 1.609375 -3.34375 C 1.628906 -2.46875 1.9375 -1.757812 2.53125 -1.21875 C 3.082031 -0.738281 3.78125 -0.5 4.625 -0.5 C 5.332031 -0.5 5.957031 -0.6875 6.5 -1.0625 L 6.796875 -0.578125 C 6.160156 -0.0664062 5.351562 0.1875 4.375 0.1875 C 3.257812 0.1875 2.359375 -0.191406 1.671875 -0.953125 C 1.066406 -1.648438 0.765625 -2.53125 0.765625 -3.59375 C 0.765625 -4.71875 1.085938 -5.65625 1.734375 -6.40625 C 2.328125 -7.09375 3.054688 -7.4375 3.921875 -7.4375 C 4.953125 -7.4375 5.726562 -6.984375 6.25 -6.078125 C 6.644531 -5.398438 6.84375 -4.566406 6.84375 -3.578125 Z M 1.625 -3.984375 L 6.046875 -3.984375 C 6.023438 -4.867188 5.828125 -5.550781 5.453125 -6.03125 C 5.078125 -6.519531 4.5625 -6.765625 3.90625 -6.765625 C 3.289062 -6.765625 2.769531 -6.503906 2.34375 -5.984375 C 1.914062 -5.472656 1.675781 -4.804688 1.625 -3.984375 Z M 1.625 -3.984375 "/></g></g></g><g fill="#ffffff" fill-opacity="1"><g transform="translate(225.021134, 221.078364)"><g><path d="M 2.53125 -6.609375 L 2.53125 -1.765625 C 2.53125 -0.898438 2.894531 -0.46875 3.625 -0.46875 C 3.90625 -0.46875 4.226562 -0.546875 4.59375 -0.703125 L 4.859375 -0.25 C 4.429688 0.0390625 3.972656 0.1875 3.484375 0.1875 C 2.984375 0.1875 2.570312 0.0078125 2.25 -0.34375 C 1.9375 -0.707031 1.78125 -1.179688 1.78125 -1.765625 L 1.78125 -6.609375 L 0.671875 -6.609375 L 0.671875 -7.25 L 1.796875 -7.25 L 1.796875 -8.90625 L 2.53125 -9.28125 L 2.53125 -7.25 L 4.8125 -7.25 L 4.8125 -6.609375 Z M 2.53125 -6.609375 "/></g></g></g><g fill="#ffffff" fill-opacity="1"><g transform="translate(232.086922, 221.078364)"><g><path d="M 2.53125 -6.609375 L 2.53125 -1.765625 C 2.53125 -0.898438 2.894531 -0.46875 3.625 -0.46875 C 3.90625 -0.46875 4.226562 -0.546875 4.59375 -0.703125 L 4.859375 -0.25 C 4.429688 0.0390625 3.972656 0.1875 3.484375 0.1875 C 2.984375 0.1875 2.570312 0.0078125 2.25 -0.34375 C 1.9375 -0.707031 1.78125 -1.179688 1.78125 -1.765625 L 1.78125 -6.609375 L 0.671875 -6.609375 L 0.671875 -7.25 L 1.796875 -7.25 L 1.796875 -8.90625 L 2.53125 -9.28125 L 2.53125 -7.25 L 4.8125 -7.25 L 4.8125 -6.609375 Z M 2.53125 -6.609375 "/></g></g></g><g fill="#ffffff" fill-opacity="1"><g transform="translate(238.993202, 221.078364)"><g><path d="M 6.84375 -3.34375 L 1.609375 -3.34375 C 1.628906 -2.46875 1.9375 -1.757812 2.53125 -1.21875 C 3.082031 -0.738281 3.78125 -0.5 4.625 -0.5 C 5.332031 -0.5 5.957031 -0.6875 6.5 -1.0625 L 6.796875 -0.578125 C 6.160156 -0.0664062 5.351562 0.1875 4.375 0.1875 C 3.257812 0.1875 2.359375 -0.191406 1.671875 -0.953125 C 1.066406 -1.648438 0.765625 -2.53125 0.765625 -3.59375 C 0.765625 -4.71875 1.085938 -5.65625 1.734375 -6.40625 C 2.328125 -7.09375 3.054688 -7.4375 3.921875 -7.4375 C 4.953125 -7.4375 5.726562 -6.984375 6.25 -6.078125 C 6.644531 -5.398438 6.84375 -4.566406 6.84375 -3.578125 Z M 1.625 -3.984375 L 6.046875 -3.984375 C 6.023438 -4.867188 5.828125 -5.550781 5.453125 -6.03125 C 5.078125 -6.519531 4.5625 -6.765625 3.90625 -6.765625 C 3.289062 -6.765625 2.769531 -6.503906 2.34375 -5.984375 C 1.914062 -5.472656 1.675781 -4.804688 1.625 -3.984375 Z M 1.625 -3.984375 "/></g></g></g><g fill="#ffffff" fill-opacity="1"><g transform="translate(248.132384, 221.078364)"><g><path d="M 1.9375 -6.421875 C 2.675781 -7.097656 3.378906 -7.4375 4.046875 -7.4375 C 4.773438 -7.4375 5.316406 -7.222656 5.671875 -6.796875 L 5.0625 -6.296875 C 4.707031 -6.585938 4.3125 -6.734375 3.875 -6.734375 C 3.21875 -6.734375 2.59375 -6.367188 2 -5.640625 L 2 0 L 1.25 0 L 1.25 -7.25 L 1.859375 -7.25 Z M 1.9375 -6.421875 "/></g></g></g><g fill="#ffffff" fill-opacity="1"><g transform="translate(255.660696, 221.078364)"><g/></g></g><g fill="#ffffff" fill-opacity="1"><g transform="translate(260.700949, 221.078364)"><g><path d="M 1.9375 -6.46875 C 2.75 -7.113281 3.546875 -7.4375 4.328125 -7.4375 C 5.191406 -7.4375 5.863281 -7.082031 6.34375 -6.375 C 7.15625 -7.082031 8.039062 -7.4375 9 -7.4375 C 9.863281 -7.4375 10.53125 -7.148438 11 -6.578125 C 11.457031 -6.035156 11.6875 -5.289062 11.6875 -4.34375 L 11.6875 0 L 10.9375 0 L 10.9375 -4.265625 C 10.9375 -5.921875 10.226562 -6.75 8.8125 -6.75 C 8.0625 -6.75 7.34375 -6.429688 6.65625 -5.796875 C 6.8125 -5.367188 6.890625 -4.882812 6.890625 -4.34375 L 6.890625 0 L 6.140625 0 L 6.140625 -4.265625 C 6.140625 -5.921875 5.472656 -6.75 4.140625 -6.75 C 3.296875 -6.75 2.582031 -6.367188 2 -5.609375 L 2 0 L 1.25 0 L 1.25 -7.25 L 1.859375 -7.25 Z M 1.9375 -6.46875 "/></g></g></g><g fill="#ffffff" fill-opacity="1"><g transform="translate(275.087384, 221.078364)"><g><path d="M 6.375 0 L 5.84375 0 L 5.6875 -0.8125 C 4.976562 -0.144531 4.132812 0.1875 3.15625 0.1875 C 2.445312 0.1875 1.867188 -0.0078125 1.421875 -0.40625 C 0.984375 -0.8125 0.765625 -1.347656 0.765625 -2.015625 C 0.765625 -3.671875 1.9375 -4.5 4.28125 -4.5 L 5.625 -4.5 L 5.625 -4.625 C 5.625 -6.039062 4.945312 -6.75 3.59375 -6.75 C 2.894531 -6.75 2.210938 -6.507812 1.546875 -6.03125 L 1.25 -6.484375 C 1.882812 -7.117188 2.722656 -7.4375 3.765625 -7.4375 C 4.609375 -7.4375 5.253906 -7.175781 5.703125 -6.65625 C 6.148438 -6.144531 6.375 -5.410156 6.375 -4.453125 Z M 5.625 -3.859375 L 4.40625 -3.859375 C 3.40625 -3.859375 2.6875 -3.722656 2.25 -3.453125 C 1.820312 -3.191406 1.609375 -2.75 1.609375 -2.125 C 1.609375 -1.613281 1.765625 -1.210938 2.078125 -0.921875 C 2.390625 -0.640625 2.820312 -0.5 3.375 -0.5 C 3.820312 -0.5 4.265625 -0.609375 4.703125 -0.828125 C 5.140625 -1.046875 5.445312 -1.304688 5.625 -1.609375 Z M 5.625 -3.859375 "/></g></g></g><g fill="#ffffff" fill-opacity="1"><g transform="translate(284.242519, 221.078364)"><g><path d="M 1.9375 -6.421875 C 2.664062 -7.097656 3.492188 -7.4375 4.421875 -7.4375 C 5.296875 -7.4375 5.96875 -7.15625 6.4375 -6.59375 C 6.90625 -6.0625 7.140625 -5.3125 7.140625 -4.34375 L 7.140625 0 L 6.390625 0 L 6.390625 -4.265625 C 6.390625 -5.921875 5.671875 -6.75 4.234375 -6.75 C 3.296875 -6.75 2.550781 -6.378906 2 -5.640625 L 2 0 L 1.25 0 L 1.25 -7.25 L 1.859375 -7.25 Z M 1.9375 -6.421875 "/></g></g></g><g fill="#ffffff" fill-opacity="1"><g transform="translate(294.083453, 221.078364)"><g><path d="M 6.375 0 L 5.84375 0 L 5.6875 -0.8125 C 4.976562 -0.144531 4.132812 0.1875 3.15625 0.1875 C 2.445312 0.1875 1.867188 -0.0078125 1.421875 -0.40625 C 0.984375 -0.8125 0.765625 -1.347656 0.765625 -2.015625 C 0.765625 -3.671875 1.9375 -4.5 4.28125 -4.5 L 5.625 -4.5 L 5.625 -4.625 C 5.625 -6.039062 4.945312 -6.75 3.59375 -6.75 C 2.894531 -6.75 2.210938 -6.507812 1.546875 -6.03125 L 1.25 -6.484375 C 1.882812 -7.117188 2.722656 -7.4375 3.765625 -7.4375 C 4.609375 -7.4375 5.253906 -7.175781 5.703125 -6.65625 C 6.148438 -6.144531 6.375 -5.410156 6.375 -4.453125 Z M 5.625 -3.859375 L 4.40625 -3.859375 C 3.40625 -3.859375 2.6875 -3.722656 2.25 -3.453125 C 1.820312 -3.191406 1.609375 -2.75 1.609375 -2.125 C 1.609375 -1.613281 1.765625 -1.210938 2.078125 -0.921875 C 2.390625 -0.640625 2.820312 -0.5 3.375 -0.5 C 3.820312 -0.5 4.265625 -0.609375 4.703125 -0.828125 C 5.140625 -1.046875 5.445312 -1.304688 5.625 -1.609375 Z M 5.625 -3.859375 "/></g></g></g><g fill="#ffffff" fill-opacity="1"><g transform="translate(303.238589, 221.078364)"><g><path d="M 6.40625 -0.5 L 6.40625 -0.703125 C 5.863281 -0.109375 5.128906 0.1875 4.203125 0.1875 C 3.179688 0.1875 2.351562 -0.207031 1.71875 -1 C 1.1875 -1.695312 0.921875 -2.554688 0.921875 -3.578125 C 0.921875 -4.804688 1.285156 -5.785156 2.015625 -6.515625 C 2.617188 -7.128906 3.382812 -7.4375 4.3125 -7.4375 C 5.195312 -7.4375 5.894531 -7.128906 6.40625 -6.515625 L 6.578125 -7.25 L 7.15625 -7.25 L 7.15625 -0.5 C 7.15625 1.863281 6.125 3.046875 4.0625 3.046875 C 3.019531 3.046875 2.179688 2.726562 1.546875 2.09375 L 1.84375 1.640625 C 2.519531 2.117188 3.203125 2.359375 3.890625 2.359375 C 4.773438 2.359375 5.414062 2.128906 5.8125 1.671875 C 6.207031 1.222656 6.40625 0.5 6.40625 -0.5 Z M 6.40625 -1.578125 L 6.40625 -5.609375 C 6.238281 -5.953125 5.96875 -6.226562 5.59375 -6.4375 C 5.21875 -6.644531 4.8125 -6.75 4.375 -6.75 C 3.601562 -6.75 2.96875 -6.445312 2.46875 -5.84375 C 2 -5.269531 1.765625 -4.535156 1.765625 -3.640625 C 1.765625 -2.609375 2.039062 -1.800781 2.59375 -1.21875 C 3.0625 -0.738281 3.648438 -0.5 4.359375 -0.5 C 5.335938 -0.5 6.019531 -0.859375 6.40625 -1.578125 Z M 6.40625 -1.578125 "/></g></g></g><g fill="#ffffff" fill-opacity="1"><g transform="translate(313.175218, 221.078364)"><g><path d="M 6.84375 -3.34375 L 1.609375 -3.34375 C 1.628906 -2.46875 1.9375 -1.757812 2.53125 -1.21875 C 3.082031 -0.738281 3.78125 -0.5 4.625 -0.5 C 5.332031 -0.5 5.957031 -0.6875 6.5 -1.0625 L 6.796875 -0.578125 C 6.160156 -0.0664062 5.351562 0.1875 4.375 0.1875 C 3.257812 0.1875 2.359375 -0.191406 1.671875 -0.953125 C 1.066406 -1.648438 0.765625 -2.53125 0.765625 -3.59375 C 0.765625 -4.71875 1.085938 -5.65625 1.734375 -6.40625 C 2.328125 -7.09375 3.054688 -7.4375 3.921875 -7.4375 C 4.953125 -7.4375 5.726562 -6.984375 6.25 -6.078125 C 6.644531 -5.398438 6.84375 -4.566406 6.84375 -3.578125 Z M 1.625 -3.984375 L 6.046875 -3.984375 C 6.023438 -4.867188 5.828125 -5.550781 5.453125 -6.03125 C 5.078125 -6.519531 4.5625 -6.765625 3.90625 -6.765625 C 3.289062 -6.765625 2.769531 -6.503906 2.34375 -5.984375 C 1.914062 -5.472656 1.675781 -4.804688 1.625 -3.984375 Z M 1.625 -3.984375 "/></g></g></g><g fill="#ffffff" fill-opacity="1"><g transform="translate(322.314401, 221.078364)"><g><path d="M 1.9375 -6.46875 C 2.75 -7.113281 3.546875 -7.4375 4.328125 -7.4375 C 5.191406 -7.4375 5.863281 -7.082031 6.34375 -6.375 C 7.15625 -7.082031 8.039062 -7.4375 9 -7.4375 C 9.863281 -7.4375 10.53125 -7.148438 11 -6.578125 C 11.457031 -6.035156 11.6875 -5.289062 11.6875 -4.34375 L 11.6875 0 L 10.9375 0 L 10.9375 -4.265625 C 10.9375 -5.921875 10.226562 -6.75 8.8125 -6.75 C 8.0625 -6.75 7.34375 -6.429688 6.65625 -5.796875 C 6.8125 -5.367188 6.890625 -4.882812 6.890625 -4.34375 L 6.890625 0 L 6.140625 0 L 6.140625 -4.265625 C 6.140625 -5.921875 5.472656 -6.75 4.140625 -6.75 C 3.296875 -6.75 2.582031 -6.367188 2 -5.609375 L 2 0 L 1.25 0 L 1.25 -7.25 L 1.859375 -7.25 Z M 1.9375 -6.46875 "/></g></g></g><g fill="#ffffff" fill-opacity="1"><g transform="translate(336.700836, 221.078364)"><g><path d="M 6.84375 -3.34375 L 1.609375 -3.34375 C 1.628906 -2.46875 1.9375 -1.757812 2.53125 -1.21875 C 3.082031 -0.738281 3.78125 -0.5 4.625 -0.5 C 5.332031 -0.5 5.957031 -0.6875 6.5 -1.0625 L 6.796875 -0.578125 C 6.160156 -0.0664062 5.351562 0.1875 4.375 0.1875 C 3.257812 0.1875 2.359375 -0.191406 1.671875 -0.953125 C 1.066406 -1.648438 0.765625 -2.53125 0.765625 -3.59375 C 0.765625 -4.71875 1.085938 -5.65625 1.734375 -6.40625 C 2.328125 -7.09375 3.054688 -7.4375 3.921875 -7.4375 C 4.953125 -7.4375 5.726562 -6.984375 6.25 -6.078125 C 6.644531 -5.398438 6.84375 -4.566406 6.84375 -3.578125 Z M 1.625 -3.984375 L 6.046875 -3.984375 C 6.023438 -4.867188 5.828125 -5.550781 5.453125 -6.03125 C 5.078125 -6.519531 4.5625 -6.765625 3.90625 -6.765625 C 3.289062 -6.765625 2.769531 -6.503906 2.34375 -5.984375 C 1.914062 -5.472656 1.675781 -4.804688 1.625 -3.984375 Z M 1.625 -3.984375 "/></g></g></g><g fill="#ffffff" fill-opacity="1"><g transform="translate(345.840019, 221.078364)"><g><path d="M 1.9375 -6.421875 C 2.664062 -7.097656 3.492188 -7.4375 4.421875 -7.4375 C 5.296875 -7.4375 5.96875 -7.15625 6.4375 -6.59375 C 6.90625 -6.0625 7.140625 -5.3125 7.140625 -4.34375 L 7.140625 0 L 6.390625 0 L 6.390625 -4.265625 C 6.390625 -5.921875 5.671875 -6.75 4.234375 -6.75 C 3.296875 -6.75 2.550781 -6.378906 2 -5.640625 L 2 0 L 1.25 0 L 1.25 -7.25 L 1.859375 -7.25 Z M 1.9375 -6.421875 "/></g></g></g><g fill="#ffffff" fill-opacity="1"><g transform="translate(355.521445, 221.078364)"><g><path d="M 2.53125 -6.609375 L 2.53125 -1.765625 C 2.53125 -0.898438 2.894531 -0.46875 3.625 -0.46875 C 3.90625 -0.46875 4.226562 -0.546875 4.59375 -0.703125 L 4.859375 -0.25 C 4.429688 0.0390625 3.972656 0.1875 3.484375 0.1875 C 2.984375 0.1875 2.570312 0.0078125 2.25 -0.34375 C 1.9375 -0.707031 1.78125 -1.179688 1.78125 -1.765625 L 1.78125 -6.609375 L 0.671875 -6.609375 L 0.671875 -7.25 L 1.796875 -7.25 L 1.796875 -8.90625 L 2.53125 -9.28125 L 2.53125 -7.25 L 4.8125 -7.25 L 4.8125 -6.609375 Z M 2.53125 -6.609375 "/></g></g></g></svg>