<svg xmlns="http://www.w3.org/2000/svg" xmlns:xlink="http://www.w3.org/1999/xlink" width="500" zoomAndPan="magnify" viewBox="0 0 375 374.999991" height="500" preserveAspectRatio="xMidYMid meet" version="1.0"><defs><g/></defs><path stroke-linecap="round" transform="matrix(0, -11.184161, 11.184161, 0, 53.290057, 334.692165)" fill="none" stroke-linejoin="round" d="M 5.000164 16.000147 L 5.000164 9.000153 L 19.000152 9.000153 L 19.000152 2.000159 L 5.000164 2.000159 L 19.000152 16.000147 L 12.000158 16.000147 M 5.000164 16.000147 L 12.000158 23.000142 L 12.000158 16.000147 M 5.000164 16.000147 L 12.000158 16.000147 " stroke="#ffffff" stroke-width="1" stroke-opacity="1" stroke-miterlimit="4"/><path stroke-linecap="round" transform="matrix(0, 11.184161, -11.184161, 0, 333.559406, -12.749999)" fill="none" stroke-linejoin="round" d="M 5.000096 15.99996 L 5.000096 8.999965 L 19.000084 8.999965 L 19.000084 1.999971 L 5.000096 1.999971 L 19.000084 15.99996 L 12.00009 15.99996 M 5.000096 15.99996 L 12.00009 22.999954 L 12.00009 15.99996 M 5.000096 15.99996 L 12.00009 15.99996 " stroke="#ffffff" stroke-width="1" stroke-opacity="1" stroke-miterlimit="4"/><path fill="#ffffff" d="M 197.8125 83.496094 L 187.761719 83.496094 L 207.863281 63.398438 L 187.761719 43.300781 L 197.8125 43.300781 L 217.90625 63.398438 Z M 198.5 114.332031 L 188.449219 114.332031 L 228.644531 74.140625 L 233.667969 79.164062 Z M 198.5 114.332031 " fill-opacity="1" fill-rule="nonzero"/><g fill="#ffffff" fill-opacity="1"><g transform="translate(22.655328, 348.113156)"><g><path d="M 4.65625 0 L 25.578125 -37.21875 L 46.46875 0 L 42.65625 0 L 25.578125 -30.46875 L 8.46875 0 Z M 4.65625 0 "/></g></g></g><g fill="#ffffff" fill-opacity="1"><g transform="translate(81.123353, 348.113156)"><g><path d="M 23.265625 -37.21875 C 25.835938 -37.21875 28.242188 -36.734375 30.484375 -35.765625 C 32.734375 -34.804688 34.710938 -33.472656 36.421875 -31.765625 C 38.128906 -30.066406 39.460938 -28.09375 40.421875 -25.84375 C 41.378906 -23.59375 41.859375 -21.179688 41.859375 -18.609375 C 41.859375 -16.035156 41.378906 -13.625 40.421875 -11.375 C 39.460938 -9.125 38.128906 -7.144531 36.421875 -5.4375 C 34.710938 -3.738281 32.734375 -2.40625 30.484375 -1.4375 C 28.242188 -0.476562 25.835938 0 23.265625 0 L 4.65625 0 L 4.65625 -3.109375 L 23.265625 -3.109375 C 25.398438 -3.109375 27.394531 -3.507812 29.25 -4.3125 C 31.113281 -5.125 32.757812 -6.242188 34.1875 -7.671875 C 35.613281 -9.097656 36.726562 -10.738281 37.53125 -12.59375 C 38.34375 -14.457031 38.75 -16.460938 38.75 -18.609375 C 38.75 -20.742188 38.34375 -22.738281 37.53125 -24.59375 C 36.726562 -26.457031 35.613281 -28.101562 34.1875 -29.53125 C 32.757812 -30.957031 31.113281 -32.070312 29.25 -32.875 C 27.394531 -33.6875 25.398438 -34.09375 23.265625 -34.09375 L 4.65625 -34.09375 L 4.65625 -37.21875 Z M 23.265625 -37.21875 "/></g></g></g><g fill="#ffffff" fill-opacity="1"><g transform="translate(134.986655, 348.113156)"><g><path d="M 25.578125 -6.75 L 42.703125 -37.21875 L 46.46875 -37.21875 L 25.578125 0 L 4.65625 -37.21875 L 8.46875 -37.21875 Z M 25.578125 -6.75 "/></g></g></g><g fill="#ffffff" fill-opacity="1"><g transform="translate(193.454675, 348.113156)"><g><path d="M 4.65625 0 L 25.578125 -37.21875 L 46.46875 0 L 42.65625 0 L 25.578125 -30.46875 L 8.46875 0 Z M 4.65625 0 "/></g></g></g><g fill="#ffffff" fill-opacity="1"><g transform="translate(251.922706, 348.113156)"><g><path d="M 41.859375 -27.125 C 41.859375 -25.320312 41.425781 -23.675781 40.5625 -22.1875 C 39.695312 -20.695312 38.566406 -19.503906 37.171875 -18.609375 C 38.566406 -17.703125 39.695312 -16.503906 40.5625 -15.015625 C 41.425781 -13.535156 41.859375 -11.894531 41.859375 -10.09375 L 41.859375 0 L 38.75 0 L 38.75 -10.09375 C 38.75 -11.363281 38.429688 -12.523438 37.796875 -13.578125 C 37.160156 -14.640625 36.320312 -15.476562 35.28125 -16.09375 C 34.238281 -16.71875 33.066406 -17.03125 31.765625 -17.03125 L 7.765625 -17.03125 L 7.765625 0 L 4.65625 0 L 4.65625 -20.1875 L 31.765625 -20.1875 C 33.066406 -20.1875 34.238281 -20.492188 35.28125 -21.109375 C 36.320312 -21.734375 37.160156 -22.570312 37.796875 -23.625 C 38.429688 -24.6875 38.75 -25.851562 38.75 -27.125 C 38.75 -28.394531 38.429688 -29.554688 37.796875 -30.609375 C 37.160156 -31.660156 36.3125 -32.503906 35.25 -33.140625 C 34.195312 -33.773438 33.035156 -34.09375 31.765625 -34.09375 L 4.65625 -34.09375 L 4.65625 -37.21875 L 31.765625 -37.21875 C 33.628906 -37.21875 35.320312 -36.757812 36.84375 -35.84375 C 38.363281 -34.925781 39.578125 -33.707031 40.484375 -32.1875 C 41.398438 -30.664062 41.859375 -28.976562 41.859375 -27.125 Z M 41.859375 -27.125 "/></g></g></g><g fill="#ffffff" fill-opacity="1"><g transform="translate(305.786013, 348.113156)"><g><path d="M 23.265625 -37.21875 C 25.835938 -37.21875 28.242188 -36.734375 30.484375 -35.765625 C 32.734375 -34.804688 34.710938 -33.472656 36.421875 -31.765625 C 38.128906 -30.066406 39.460938 -28.09375 40.421875 -25.84375 C 41.378906 -23.59375 41.859375 -21.179688 41.859375 -18.609375 C 41.859375 -16.035156 41.378906 -13.625 40.421875 -11.375 C 39.460938 -9.125 38.128906 -7.144531 36.421875 -5.4375 C 34.710938 -3.738281 32.734375 -2.40625 30.484375 -1.4375 C 28.242188 -0.476562 25.835938 0 23.265625 0 L 4.65625 0 L 4.65625 -3.109375 L 23.265625 -3.109375 C 25.398438 -3.109375 27.394531 -3.507812 29.25 -4.3125 C 31.113281 -5.125 32.757812 -6.242188 34.1875 -7.671875 C 35.613281 -9.097656 36.726562 -10.738281 37.53125 -12.59375 C 38.34375 -14.457031 38.75 -16.460938 38.75 -18.609375 C 38.75 -20.742188 38.34375 -22.738281 37.53125 -24.59375 C 36.726562 -26.457031 35.613281 -28.101562 34.1875 -29.53125 C 32.757812 -30.957031 31.113281 -32.070312 29.25 -32.875 C 27.394531 -33.6875 25.398438 -34.09375 23.265625 -34.09375 L 4.65625 -34.09375 L 4.65625 -37.21875 Z M 23.265625 -37.21875 "/></g></g></g></svg>